<!DOCTYPE svg PUBLIC "-//W3C//DTD SVG 20010904//EN" "http://www.w3.org/TR/2001/REC-SVG-20010904/DTD/svg10.dtd">
<svg version="1.0" xmlns="http://www.w3.org/2000/svg" width="225px" height="225px" viewBox="0 0 2250 2250" preserveAspectRatio="xMidYMid meet">
<g id="layer101" fill="#383c47" stroke="none">
 <path d="M875 2235 c-6 -9 -41 -24 -79 -35 -207 -59 -441 -222 -566 -395 -263 -364 -302 -789 -108 -1184 50 -102 109 -184 197 -275 433 -448 1136 -461 1585 -27 264 255 391 628 331 977 -21 121 -60 240 -111 341 -50 98 -112 186 -125 177 -5 -3 -9 4 -9 16 0 30 -130 156 -232 223 -126 84 -291 156 -397 173 -23 4 -44 11 -47 15 -3 5 -101 9 -217 9 -179 0 -214 -2 -222 -15z"/>
 </g>
<g id="layer102" fill="#4a59a6" stroke="none">
 <path d="M875 2235 c-6 -9 -41 -24 -79 -35 -207 -59 -441 -222 -566 -395 -263 -364 -302 -789 -108 -1184 50 -102 109 -184 197 -275 433 -448 1136 -461 1585 -27 264 255 391 628 331 977 -21 121 -60 240 -111 341 -50 98 -112 186 -125 177 -5 -3 -9 4 -9 16 0 30 -130 156 -232 223 -126 84 -291 156 -397 173 -23 4 -44 11 -47 15 -3 5 -101 9 -217 9 -179 0 -214 -2 -222 -15z m-206 -1342 c-4 -27 -8 -86 -8 -133 l-1 -85 143 0 c109 0 156 -4 202 -18 126 -39 212 -101 275 -198 l37 -57 22 52 c11 28 35 68 51 88 32 39 120 88 157 88 l24 0 -3 155 c-2 85 0 151 4 147 24 -26 71 -135 83 -193 73 -345 -167 -661 -510 -672 -279 -10 -513 172 -565 441 -25 126 5 299 68 395 14 20 26 37 27 37 1 0 -2 -21 -6 -47z"/>
 </g>
<g id="layer103" fill="#7f6459" stroke="none">
 <path d="M875 2235 c-6 -9 -41 -24 -79 -35 -207 -59 -441 -222 -566 -395 -263 -364 -302 -789 -108 -1184 50 -102 109 -184 197 -275 433 -448 1136 -461 1585 -27 264 255 391 628 331 977 -21 121 -60 240 -111 341 -50 98 -112 186 -125 177 -5 -3 -9 4 -9 16 0 30 -130 156 -232 223 -126 84 -291 156 -397 173 -23 4 -44 11 -47 15 -3 5 -38 8 -77 7 -62 -1 -65 -2 -20 -5 51 -4 52 -5 47 -31 -3 -15 -22 -137 -43 -272 l-38 -245 29 -42 29 -43 -52 -77 c-28 -43 -55 -82 -59 -86 -6 -7 -120 143 -120 158 0 4 13 25 28 48 l29 42 -38 245 c-21 135 -40 257 -43 272 -5 26 -4 27 47 31 29 2 8 4 -48 5 -80 2 -102 -1 -110 -13z m-206 -1342 c-4 -27 -8 -86 -8 -133 l-1 -85 143 0 c109 0 156 -4 202 -18 126 -39 212 -101 275 -198 l37 -57 22 52 c11 28 35 68 51 88 32 39 120 88 157 88 l24 0 -3 155 c-2 85 0 151 4 147 24 -26 71 -135 83 -193 73 -345 -167 -661 -510 -672 -279 -10 -513 172 -565 441 -25 126 5 299 68 395 14 20 26 37 27 37 1 0 -2 -21 -6 -47z"/>
 </g>
<g id="layer104" fill="#fbd303" stroke="none">
 <path d="M875 2235 c-6 -9 -39 -24 -75 -34 -36 -10 -77 -24 -92 -30 l-28 -11 0 -384 0 -384 78 -26 c61 -21 84 -34 110 -66 17 -21 32 -43 32 -49 0 -8 -60 -11 -182 -11 -205 0 -235 8 -295 71 -40 43 -53 77 -53 141 0 41 2 48 14 39 11 -9 120 -51 133 -51 1 0 3 142 3 316 l0 315 -30 -18 c-69 -41 -201 -167 -260 -248 -262 -363 -301 -790 -108 -1184 182 -371 585 -620 1003 -620 223 0 474 81 651 209 455 330 601 930 348 1427 -50 98 -112 186 -125 177 -5 -3 -9 4 -9 15 0 26 -103 132 -190 195 l-65 48 -3 -303 c-1 -167 0 -309 2 -316 4 -9 19 -7 62 7 31 11 63 25 70 31 12 9 14 2 14 -39 0 -64 -13 -98 -53 -141 -61 -64 -90 -71 -300 -71 -121 0 -187 4 -185 10 6 17 73 99 81 100 5 0 40 9 78 21 l69 21 -2 385 -3 385 -61 23 c-33 13 -87 29 -120 35 -32 7 -63 17 -68 22 -6 4 -26 7 -45 7 -20 -1 -28 -3 -19 -6 13 -3 16 -11 12 -31 -3 -15 -22 -137 -43 -272 l-38 -245 29 -42 29 -43 -52 -77 c-28 -43 -55 -82 -59 -86 -6 -7 -120 143 -120 158 0 4 13 25 28 48 l29 42 -38 245 c-21 135 -40 257 -43 272 -4 20 -1 28 12 31 9 3 -12 5 -48 6 -48 1 -68 -3 -75 -14z m-203 -1422 l-4 -138 118 3 c136 4 213 -8 302 -48 69 -32 170 -122 204 -181 l21 -38 27 57 c36 77 103 136 175 158 l57 16 -4 149 c-3 163 -2 165 48 67 50 -99 69 -256 43 -368 -33 -146 -158 -304 -291 -368 -318 -154 -681 7 -782 347 -25 86 -21 226 9 316 17 52 72 165 80 165 0 0 -1 -62 -3 -137z"/>
 </g>
<g id="layer105" fill="#f6cd9f" stroke="none">
 <path d="M875 2235 c-6 -9 -39 -24 -75 -34 -36 -10 -77 -24 -92 -30 l-28 -11 0 -384 0 -384 78 -26 c61 -21 84 -34 110 -66 17 -21 32 -43 32 -48 0 -6 -22 -27 -50 -47 -63 -46 -102 -96 -142 -181 -30 -65 -32 -76 -36 -209 l-4 -140 118 3 c136 4 212 -8 302 -48 69 -32 170 -122 204 -181 l21 -38 27 57 c36 77 103 136 175 157 l57 17 -3 151 c-2 84 -6 159 -10 167 -4 8 -21 45 -38 82 -25 52 -49 83 -107 137 -70 63 -75 71 -63 89 26 35 68 82 74 82 4 0 38 9 76 21 l69 21 -2 385 -3 385 -61 23 c-33 13 -87 29 -120 35 -32 7 -63 17 -68 22 -6 4 -26 7 -45 7 -20 -1 -28 -3 -19 -6 13 -3 16 -11 12 -31 -3 -15 -22 -137 -43 -272 l-38 -245 29 -42 29 -43 -52 -77 c-28 -43 -55 -82 -59 -86 -6 -7 -120 143 -120 158 0 4 13 25 28 48 l29 42 -38 245 c-21 135 -40 257 -43 272 -4 20 -1 28 12 31 9 3 -12 5 -48 6 -48 1 -68 -3 -75 -14z"/>
 <path d="M451 2025 c-82 -61 -217 -195 -204 -203 5 -4 25 -67 43 -141 39 -158 59 -185 161 -220 34 -11 64 -19 66 -17 2 1 2 144 1 316 l-3 312 -64 -47z"/>
 <path d="M1730 1763 c0 -170 3 -312 6 -315 12 -13 127 36 158 67 27 27 38 53 64 152 40 151 40 166 -2 218 -34 40 -143 134 -198 170 l-28 17 0 -309z"/>
 <path d="M3 1225 c0 -22 2 -30 4 -17 2 12 2 30 0 40 -3 9 -5 -1 -4 -23z"/>
 <path d="M3 1025 c0 -22 2 -30 4 -17 2 12 2 30 0 40 -3 9 -5 -1 -4 -23z"/>
 <path d="M2243 1025 c0 -22 2 -30 4 -17 2 12 2 30 0 40 -3 9 -5 -1 -4 -23z"/>
 <path d="M1013 3 c9 -2 25 -2 35 0 9 3 1 5 -18 5 -19 0 -27 -2 -17 -5z"/>
 <path d="M1203 3 c9 -2 25 -2 35 0 9 3 1 5 -18 5 -19 0 -27 -2 -17 -5z"/>
 </g>
<g id="layer106" fill="#f2f4f7" stroke="none">
 <path d="M875 2235 c-6 -9 -39 -24 -75 -34 -36 -10 -77 -24 -92 -30 l-28 -11 0 -384 0 -384 76 -26 c60 -20 83 -34 113 -68 l38 -42 101 89 c56 48 102 94 102 100 0 7 -22 44 -50 83 -27 39 -50 74 -50 77 0 4 13 25 28 48 l29 42 -38 245 c-21 135 -40 257 -43 272 -4 20 -1 28 12 31 9 3 -12 5 -48 6 -48 1 -68 -3 -75 -14z"/>
 <path d="M1252 2243 c13 -3 16 -11 12 -31 -3 -15 -22 -137 -43 -272 l-38 -245 29 -42 29 -42 -57 -86 c-34 -51 -54 -89 -48 -94 31 -30 200 -171 204 -171 3 0 21 20 40 45 19 24 39 44 43 45 5 0 40 9 78 21 l69 21 -2 385 -3 385 -61 23 c-33 13 -87 29 -120 35 -32 7 -63 17 -68 22 -6 4 -26 7 -45 7 -20 -1 -28 -3 -19 -6z"/>
 <path d="M470 2039 c-71 -51 -191 -161 -202 -185 -8 -17 -3 -54 23 -159 41 -168 65 -202 161 -234 34 -11 63 -19 65 -17 2 1 2 143 1 315 l-3 312 -45 -32z"/>
 <path d="M1730 1763 c0 -170 3 -312 6 -315 3 -4 31 3 63 13 93 32 116 63 157 215 18 71 34 138 34 148 0 37 -128 164 -232 231 l-28 17 0 -309z"/>
 </g>

</svg>