<!DOCTYPE svg PUBLIC "-//W3C//DTD SVG 20010904//EN" "http://www.w3.org/TR/2001/REC-SVG-20010904/DTD/svg10.dtd">
<svg version="1.0" xmlns="http://www.w3.org/2000/svg" width="512px" height="512px" viewBox="0 0 5120 5120" preserveAspectRatio="xMidYMid meet">
<g id="layer101" fill="#3b3b3b" stroke="none">
 <path d="M2253 5105 c-565 -73 -1056 -308 -1460 -699 -150 -144 -258 -271 -358 -421 -284 -424 -435 -919 -435 -1425 0 -662 255 -1292 714 -1768 144 -149 271 -257 421 -357 866 -580 1984 -580 2850 0 287 192 560 474 744 767 509 811 521 1855 31 2668 -143 238 -384 515 -595 685 -380 305 -817 489 -1308 550 -148 18 -461 18 -604 0z"/>
 </g>
<g id="layer102" fill="#d48b07" stroke="none">
 <path d="M2253 5105 c-565 -73 -1056 -308 -1460 -699 -307 -296 -516 -619 -653 -1011 -152 -434 -179 -947 -74 -1409 103 -451 324 -858 648 -1194 296 -306 620 -515 1011 -652 434 -152 947 -179 1409 -74 451 103 858 324 1194 648 306 296 515 620 652 1011 144 411 178 932 88 1355 -78 371 -227 701 -456 1009 -98 133 -318 362 -447 466 -380 305 -817 489 -1308 550 -148 18 -461 18 -604 0z m1098 -2170 c230 -342 342 -717 309 -1036 -20 -195 -81 -354 -206 -536 -85 -124 -254 -293 -356 -358 -73 -46 -91 -66 -69 -80 6 -3 13 -26 17 -51 18 -122 -99 -237 -296 -291 -88 -24 -299 -24 -390 0 -133 35 -244 106 -281 179 -27 53 -27 128 0 173 l19 33 -51 26 c-140 69 -295 232 -382 402 -79 154 -132 357 -142 544 -8 164 9 281 32 210 10 -30 54 -79 88 -96 l30 -16 112 112 c100 99 114 118 119 155 8 48 37 109 72 146 56 59 170 92 249 70 90 -24 179 -114 192 -194 l6 -38 135 3 136 3 7 32 c9 48 54 117 95 148 50 38 98 54 164 54 66 1 122 -23 178 -73 21 -20 42 -36 45 -36 6 0 32 107 48 200 14 77 17 327 6 420 l-7 65 20 -25 c12 -14 57 -79 101 -145z"/>
 <path d="M2075 2417 c-73 -41 -105 -140 -71 -220 7 -18 29 -47 49 -64 123 -108 313 8 283 172 -8 40 -55 99 -97 121 -42 21 -117 18 -164 -9z"/>
 <path d="M2882 2423 c-44 -21 -79 -65 -92 -114 -30 -110 55 -214 172 -213 63 1 87 19 131 104 46 85 45 119 -6 177 -54 62 -136 80 -205 46z"/>
 <path d="M2396 2155 c-65 -159 -295 -198 -419 -70 -20 21 -39 46 -42 56 -4 11 -10 19 -13 19 -4 0 -43 -36 -87 -81 -92 -92 -95 -73 26 -159 83 -59 209 -185 288 -287 73 -94 57 -91 201 -40 187 65 385 186 522 319 l83 80 -68 22 c-78 26 -139 77 -169 144 l-19 42 -142 0 -142 0 -19 -45z"/>
 </g>
<g id="layer103" fill="#ff6262" stroke="none">
 <path d="M2253 5105 c-565 -73 -1056 -308 -1460 -699 -260 -251 -443 -512 -580 -827 -141 -322 -204 -624 -208 -989 -3 -244 19 -437 74 -656 179 -713 669 -1326 1326 -1657 381 -192 755 -278 1190 -272 232 2 383 22 593 74 711 179 1324 670 1655 1326 189 374 276 751 272 1170 -1 105 -3 210 -3 235 l-2 45 -1039 -1040 c-571 -572 -1048 -1057 -1060 -1077 -62 -104 -264 -181 -465 -177 -172 3 -309 45 -401 124 -90 76 -114 160 -71 244 9 16 16 32 16 35 0 3 -18 15 -39 26 -133 68 -289 218 -355 343 -13 23 -28 52 -34 62 -42 75 -83 193 -112 320 -22 96 -38 354 -26 418 8 41 21 48 31 17 10 -30 54 -79 88 -96 l30 -16 112 112 c100 99 114 118 119 155 8 48 37 109 72 146 56 59 170 92 249 70 90 -24 179 -114 192 -194 l6 -38 135 3 136 3 7 32 c9 48 54 117 95 148 50 38 98 54 164 54 66 1 122 -23 179 -74 23 -21 43 -36 45 -34 9 9 36 129 47 210 l12 85 -43 65 c-24 35 -81 103 -127 150 l-83 86 0 182 c0 144 3 181 13 181 8 0 52 44 99 98 l85 99 164 32 c90 18 193 39 229 48 178 43 312 164 371 333 21 60 23 88 28 383 l6 318 -65 41 c-308 195 -681 326 -1063 373 -148 18 -461 18 -604 0z"/>
 <path d="M2075 2417 c-73 -41 -105 -140 -71 -220 7 -18 29 -47 49 -64 123 -108 313 8 283 172 -8 40 -55 99 -97 121 -42 21 -117 18 -164 -9z"/>
 <path d="M2882 2423 c-44 -21 -79 -65 -92 -114 -30 -110 55 -214 172 -213 63 1 87 19 131 104 46 85 45 119 -6 177 -54 62 -136 80 -205 46z"/>
 <path d="M2396 2155 c-65 -159 -295 -198 -419 -70 -20 21 -39 46 -42 56 -4 11 -10 19 -13 19 -4 0 -43 -36 -87 -81 -92 -92 -95 -73 26 -159 83 -59 209 -185 288 -287 73 -94 57 -91 201 -40 187 65 385 186 522 319 l83 80 -68 22 c-78 26 -139 77 -169 144 l-19 42 -142 0 -142 0 -19 -45z"/>
 </g>
<g id="layer104" fill="#ffc61b" stroke="none">
 <path d="M2253 5105 c-565 -73 -1056 -308 -1460 -699 -260 -251 -443 -512 -580 -827 -141 -322 -204 -624 -208 -989 -3 -244 19 -437 74 -656 179 -713 669 -1326 1326 -1657 381 -192 755 -278 1190 -272 232 2 383 22 593 74 711 179 1324 670 1655 1326 189 374 276 751 272 1170 -1 105 -3 210 -3 235 l-2 45 -1039 -1040 c-571 -572 -1048 -1057 -1060 -1077 -62 -104 -264 -181 -465 -177 -172 3 -309 45 -401 124 -90 76 -114 160 -71 244 9 16 16 32 16 35 0 3 -18 15 -39 26 -133 68 -289 218 -355 343 -13 23 -28 52 -34 62 -42 75 -83 193 -112 320 -22 96 -38 354 -26 418 8 41 21 48 31 17 10 -30 54 -79 88 -96 l30 -16 112 112 c100 99 114 118 119 155 8 48 37 109 72 146 56 59 170 92 249 70 90 -24 179 -114 192 -194 l6 -38 135 3 136 3 7 32 c9 48 54 117 95 148 50 38 98 54 164 54 66 1 122 -23 179 -74 23 -21 43 -36 45 -34 9 9 36 129 47 210 l12 85 -43 65 c-24 35 -81 103 -127 150 l-83 86 0 182 c0 144 3 181 13 181 8 0 52 44 99 98 l85 99 -171 274 c-106 169 -181 279 -197 288 -46 26 -72 9 -164 -109 -48 -61 -91 -110 -96 -110 -5 0 -9 36 -9 80 0 75 1 81 24 89 32 13 40 47 15 72 -10 10 -23 19 -29 19 -5 0 -10 18 -10 40 0 34 4 42 25 50 19 7 25 17 25 40 0 23 -6 33 -25 40 l-25 10 0 380 0 380 -97 -1 c-54 -1 -144 -7 -200 -14z"/>
 <path d="M2703 5113 c15 -2 37 -2 50 0 12 2 0 4 -28 4 -27 0 -38 -2 -22 -4z"/>
 <path d="M2075 2417 c-73 -41 -105 -140 -71 -220 7 -18 29 -47 49 -64 123 -108 313 8 283 172 -8 40 -55 99 -97 121 -42 21 -117 18 -164 -9z"/>
 <path d="M2882 2423 c-44 -21 -79 -65 -92 -114 -30 -110 55 -214 172 -213 63 1 87 19 131 104 46 85 45 119 -6 177 -54 62 -136 80 -205 46z"/>
 <path d="M2396 2155 c-65 -159 -295 -198 -419 -70 -20 21 -39 46 -42 56 -4 11 -10 19 -13 19 -4 0 -43 -36 -87 -81 -92 -92 -95 -73 26 -159 83 -59 209 -185 288 -287 73 -94 57 -91 201 -40 187 65 385 186 522 319 l83 80 -68 22 c-78 26 -139 77 -169 144 l-19 42 -142 0 -142 0 -19 -45z"/>
 </g>
<g id="layer105" fill="#e1a963" stroke="none">
 <path d="M2253 5105 c-366 -47 -705 -164 -1013 -350 -60 -36 -110 -69 -110 -71 0 -3 5 -2 10 1 7 4 10 -101 10 -308 0 -348 3 -370 66 -483 18 -34 59 -85 90 -113 93 -85 145 -105 402 -157 l228 -46 84 -99 c46 -55 89 -99 97 -99 10 0 13 -36 13 -181 l0 -181 -82 -87 c-72 -75 -163 -202 -224 -311 -18 -32 -23 -34 -61 -32 -47 4 -87 -14 -124 -55 -64 -70 -99 -167 -99 -275 0 -102 34 -169 104 -205 l29 -15 112 112 c100 99 114 118 119 155 8 48 37 109 72 146 56 59 170 92 249 70 90 -24 179 -114 192 -194 l6 -38 135 3 136 3 7 32 c9 48 54 117 95 148 50 38 98 54 164 54 66 1 122 -23 179 -74 23 -21 43 -36 45 -34 9 9 36 129 47 210 l12 85 -43 65 c-24 35 -81 103 -127 150 l-83 86 0 182 c0 144 3 181 13 181 8 0 52 44 99 98 l85 99 -171 274 c-106 169 -181 279 -197 288 -46 26 -72 9 -164 -109 -48 -61 -91 -110 -96 -110 -5 0 -9 36 -9 80 0 75 1 81 24 89 32 13 40 47 15 72 -10 10 -23 19 -29 19 -5 0 -10 18 -10 40 0 34 4 42 25 50 19 7 25 17 25 40 0 23 -6 33 -25 40 l-25 10 0 380 0 380 -97 -1 c-54 -1 -144 -7 -200 -14z"/>
 <path d="M2703 5113 c15 -2 37 -2 50 0 12 2 0 4 -28 4 -27 0 -38 -2 -22 -4z"/>
 <path d="M3 2735 c0 -22 2 -30 4 -17 2 12 2 30 0 40 -3 9 -5 -1 -4 -23z"/>
 <path d="M5113 2735 c0 -22 2 -30 4 -17 2 12 2 30 0 40 -3 9 -5 -1 -4 -23z"/>
 <path d="M2075 2417 c-73 -41 -105 -140 -71 -220 7 -18 29 -47 49 -64 123 -108 313 8 283 172 -8 40 -55 99 -97 121 -42 21 -117 18 -164 -9z"/>
 <path d="M2882 2423 c-44 -21 -79 -65 -92 -114 -30 -110 55 -214 172 -213 63 1 87 19 131 104 46 85 45 119 -6 177 -54 62 -136 80 -205 46z"/>
 <path d="M3 2385 c0 -22 2 -30 4 -17 2 12 2 30 0 40 -3 9 -5 -1 -4 -23z"/>
 <path d="M5112 2390 c0 -19 2 -27 5 -17 2 9 2 25 0 35 -3 9 -5 1 -5 -18z"/>
 <path d="M2396 2155 c-65 -159 -295 -198 -419 -70 -20 21 -39 46 -42 56 -4 11 -10 19 -13 19 -4 0 -43 -36 -87 -81 -92 -92 -95 -73 26 -159 83 -59 209 -185 288 -287 73 -94 57 -91 201 -40 187 65 385 186 522 319 l83 80 -68 22 c-78 26 -139 77 -169 144 l-19 42 -142 0 -142 0 -19 -45z"/>
 <path d="M2368 3 c12 -2 30 -2 40 0 9 3 -1 5 -23 4 -22 0 -30 -2 -17 -4z"/>
 <path d="M2718 3 c12 -2 30 -2 40 0 9 3 -1 5 -23 4 -22 0 -30 -2 -17 -4z"/>
 </g>
<g id="layer106" fill="#ffad9e" stroke="none">
 <path d="M2253 5105 c-366 -47 -705 -164 -1013 -350 -60 -36 -110 -69 -110 -71 0 -3 5 -2 10 1 7 4 10 -96 10 -293 0 -165 4 -323 10 -352 17 -88 66 -177 139 -249 89 -90 160 -118 430 -172 l206 -41 84 -99 c46 -54 90 -99 98 -99 10 0 13 -36 13 -181 l0 -181 -82 -87 c-72 -75 -163 -202 -224 -311 -18 -32 -23 -34 -61 -32 -47 4 -87 -14 -124 -55 -64 -70 -99 -167 -99 -275 0 -102 34 -169 104 -205 l29 -15 112 112 c100 99 114 118 119 155 8 48 37 109 72 146 56 59 170 92 249 70 90 -24 179 -114 192 -194 l6 -38 135 3 136 3 7 32 c17 83 101 172 184 194 51 14 150 6 193 -16 19 -10 49 -33 68 -52 20 -19 37 -33 39 -31 7 7 34 128 46 206 l12 82 -46 68 c-161 235 -372 382 -585 407 l-62 7 0 348 c0 192 3 351 8 353 4 3 99 -112 211 -254 133 -169 210 -259 222 -259 10 0 34 17 53 38 61 66 136 157 136 164 0 3 -76 127 -168 275 -103 164 -177 273 -193 282 -46 26 -72 9 -164 -109 -48 -61 -91 -110 -96 -110 -5 0 -9 36 -9 80 0 75 1 81 24 89 32 13 40 47 15 72 -10 10 -23 19 -29 19 -5 0 -10 18 -10 40 0 34 4 42 25 50 19 7 25 17 25 40 0 23 -6 33 -25 40 l-25 10 0 380 0 380 -97 -1 c-54 -1 -144 -7 -200 -14z"/>
 <path d="M2718 5113 c12 -2 30 -2 40 0 9 3 -1 5 -23 4 -22 0 -30 -2 -17 -4z"/>
 <path d="M3 2735 c0 -22 2 -30 4 -17 2 12 2 30 0 40 -3 9 -5 -1 -4 -23z"/>
 <path d="M5113 2735 c0 -22 2 -30 4 -17 2 12 2 30 0 40 -3 9 -5 -1 -4 -23z"/>
 <path d="M2075 2417 c-73 -41 -105 -140 -71 -220 7 -18 29 -47 49 -64 123 -108 313 8 283 172 -8 40 -55 99 -97 121 -42 21 -117 18 -164 -9z"/>
 <path d="M2882 2423 c-44 -21 -79 -65 -92 -114 -30 -109 55 -214 171 -213 68 1 83 14 150 138 27 49 19 94 -24 143 -54 62 -136 80 -205 46z"/>
 <path d="M3 2385 c0 -22 2 -30 4 -17 2 12 2 30 0 40 -3 9 -5 -1 -4 -23z"/>
 <path d="M5112 2390 c0 -19 2 -27 5 -17 2 9 2 25 0 35 -3 9 -5 1 -5 -18z"/>
 <path d="M2396 2155 c-65 -159 -295 -198 -419 -70 -20 21 -39 46 -42 56 -4 11 -10 19 -13 19 -4 0 -43 -36 -87 -81 -92 -92 -95 -73 26 -159 83 -59 209 -185 288 -287 73 -94 57 -91 201 -40 82 28 203 86 265 127 17 11 37 23 45 26 44 20 155 109 235 189 l60 59 -30 7 c-66 16 -87 26 -134 64 -34 26 -57 55 -71 87 l-21 48 -142 0 -142 0 -19 -45z"/>
 <path d="M2368 3 c12 -2 30 -2 40 0 9 3 -1 5 -23 4 -22 0 -30 -2 -17 -4z"/>
 <path d="M2718 3 c12 -2 30 -2 40 0 9 3 -1 5 -23 4 -22 0 -30 -2 -17 -4z"/>
 </g>
<g id="layer107" fill="#f6dfa0" stroke="none">
 <path d="M2368 5113 c12 -2 30 -2 40 0 9 3 -1 5 -23 4 -22 0 -30 -2 -17 -4z"/>
 <path d="M2524 4336 c-3 -8 -4 -25 -2 -38 2 -18 9 -23 32 -23 36 0 56 27 40 53 -14 22 -62 28 -70 8z"/>
 <path d="M2527 4163 c-4 -3 -7 -19 -7 -34 0 -22 6 -30 25 -35 43 -11 73 34 43 64 -13 13 -50 16 -61 5z"/>
 <path d="M2286 4128 c-36 -33 -348 -539 -342 -555 10 -25 160 -193 173 -193 10 0 13 -39 13 -181 l0 -181 -82 -87 c-72 -75 -163 -202 -224 -311 -18 -32 -23 -34 -61 -32 -47 4 -87 -14 -124 -55 -64 -70 -99 -167 -99 -275 0 -102 34 -169 104 -205 l29 -15 112 112 c100 99 114 118 119 155 8 48 37 109 72 146 56 59 170 92 249 70 90 -24 179 -114 192 -194 l6 -38 135 3 136 3 7 32 c17 83 101 172 184 194 51 14 150 6 193 -16 19 -10 49 -33 68 -52 20 -19 37 -33 39 -32 7 8 34 129 46 207 l12 82 -46 68 c-161 235 -372 382 -585 407 l-62 7 0 354 c0 197 4 354 9 354 5 0 28 -26 52 -57 109 -145 352 -449 365 -456 8 -5 22 -5 32 -2 18 6 167 179 167 194 0 5 -74 128 -165 274 -102 165 -175 271 -192 281 -48 29 -72 10 -192 -147 -32 -42 -62 -77 -65 -77 -3 1 -35 40 -71 87 -121 161 -150 179 -204 131z"/>
 <path d="M3 2735 c0 -22 2 -30 4 -17 2 12 2 30 0 40 -3 9 -5 -1 -4 -23z"/>
 <path d="M5113 2735 c0 -22 2 -30 4 -17 2 12 2 30 0 40 -3 9 -5 -1 -4 -23z"/>
 <path d="M2075 2417 c-73 -41 -105 -140 -71 -220 7 -18 29 -47 49 -64 123 -108 313 8 283 172 -8 40 -55 99 -97 121 -42 21 -117 18 -164 -9z"/>
 <path d="M2882 2423 c-44 -21 -79 -65 -92 -114 -30 -109 55 -214 171 -213 68 1 83 14 150 138 27 49 19 94 -24 143 -54 62 -136 80 -205 46z"/>
 <path d="M3 2385 c0 -22 2 -30 4 -17 2 12 2 30 0 40 -3 9 -5 -1 -4 -23z"/>
 <path d="M5112 2390 c0 -19 2 -27 5 -17 2 9 2 25 0 35 -3 9 -5 1 -5 -18z"/>
 <path d="M2396 2155 c-65 -159 -295 -198 -419 -70 -20 21 -39 46 -42 56 -4 11 -10 19 -13 19 -4 0 -43 -36 -87 -81 -92 -92 -95 -73 26 -159 83 -59 209 -185 288 -287 73 -94 57 -91 201 -40 82 28 203 86 265 127 17 11 37 23 45 26 44 20 155 109 235 189 l60 59 -30 7 c-66 16 -87 26 -134 64 -34 26 -57 55 -71 87 l-21 48 -142 0 -142 0 -19 -45z"/>
 <path d="M2368 3 c12 -2 30 -2 40 0 9 3 -1 5 -23 4 -22 0 -30 -2 -17 -4z"/>
 <path d="M2718 3 c12 -2 30 -2 40 0 9 3 -1 5 -23 4 -22 0 -30 -2 -17 -4z"/>
 </g>
<g id="layer108" fill="#f0efef" stroke="none">
 <path d="M2530 4335 c-26 -32 13 -81 48 -59 34 22 22 74 -18 74 -10 0 -23 -7 -30 -15z"/>
 <path d="M2524 4156 c-15 -40 21 -80 54 -60 37 24 21 74 -25 74 -13 0 -26 -6 -29 -14z"/>
 <path d="M2298 4139 c-9 -5 -94 -133 -189 -284 l-171 -275 73 -86 c79 -93 108 -118 130 -109 11 5 300 365 401 499 18 23 17 25 -63 127 -45 57 -90 112 -101 122 -22 19 -54 22 -80 6z"/>
 <path d="M2762 4139 c-25 -10 -193 -218 -190 -236 2 -6 92 -125 201 -262 156 -198 203 -251 221 -251 17 0 45 26 104 94 l82 95 -161 258 c-89 142 -170 268 -181 280 -24 26 -47 33 -76 22z"/>
 </g>

</svg>